<?xml version="1.0" encoding="UTF-8"?>
<svg id="uuid-163728b6-fd85-4501-9f09-57a1724264b4" data-name="Layer 2" xmlns="http://www.w3.org/2000/svg" width="548.06" height="273.85" viewBox="0 0 548.06 273.85">
  <g id="uuid-d58110b6-9dec-45f3-aecd-a2c343ee1fe9" data-name="Logo">
    <g>
      <g>
        <path d="m501.53,240.05c5.63,0,10.2-4.58,10.2-10.2s-4.58-10.2-10.2-10.2-10.2,4.58-10.2,10.2,4.58,10.2,10.2,10.2Zm0-16.4c3.42,0,6.2,2.78,6.2,6.2s-2.78,6.2-6.2,6.2-6.2-2.78-6.2-6.2,2.78-6.2,6.2-6.2Z" style="fill: #fff; stroke-width: 0px;"/>
        <path d="m59.57,219.65c-5.63,0-10.2,4.58-10.2,10.2s4.58,10.2,10.2,10.2,10.2-4.58,10.2-10.2-4.58-10.2-10.2-10.2Zm0,16.4c-3.42,0-6.2-2.78-6.2-6.2s2.78-6.2,6.2-6.2,6.2,2.78,6.2,6.2-2.78,6.2-6.2,6.2Z" style="fill: #fff; stroke-width: 0px;"/>
        <path d="m181.22,170.95l-6.27,6.27c1.02.98,2.21,1.78,3.53,2.36l3.36-8.21c-.22-.11-.43-.25-.62-.41Z" style="fill: #fff; stroke-width: 0px;"/>
        <path d="m180.46,169.98l-8.18,3.43c.57,1.28,1.36,2.44,2.32,3.44l6.27-6.27c-.16-.18-.29-.39-.4-.6Z" style="fill: #fff; stroke-width: 0px;"/>
        <path d="m178.96,179.76c1.27.49,2.64.77,4.07.8v-8.87c-.25-.02-.48-.07-.71-.14l-3.36,8.21Z" style="fill: #fff; stroke-width: 0px;"/>
        <path d="m180.11,168.78h-8.87c.03,1.47.32,2.87.84,4.16l8.18-3.43c-.08-.23-.13-.48-.15-.73Z" style="fill: #fff; stroke-width: 0px;"/>
        <path d="m182.29,165.5c.23-.08.48-.13.73-.15v-8.87c-1.47.03-2.87.32-4.16.84l3.43,8.18Z" style="fill: #fff; stroke-width: 0px;"/>
        <path d="m180.25,167.56l-8.21-3.36c-.49,1.27-.77,2.64-.8,4.07h8.87c.02-.25.07-.48.14-.71Z" style="fill: #fff; stroke-width: 0px;"/>
        <path d="m172.9,155.52c1.39-1.11,2.97-2,4.67-2.62-.14-.08-.27-.17-.39-.28-.07-.02-.14-.03-.21-.06-5.58-2.28-9.48-6.98-11.26-13.61-.11-.42-.21-.83-.3-1.24,0-.04-.02-.09-.03-.13-.04.02-.07.04-.11.06-.57.29-1.14.59-1.71.92-.15.08-.29.17-.44.26-.25.15-.49.31-.74.46.31,4.69,1.79,9.79,6.3,12.17.44.23.77.58,1,.98.14.12.27.26.37.41,1.51.01,2.74,1.19,2.84,2.68Z" style="fill: #fff; stroke-width: 0px;"/>
        <path d="m185.34,166.1l6.27-6.27c-1.02-.98-2.21-1.78-3.53-2.36l-3.36,8.21c.22.11.43.25.62.41Z" style="fill: #fff; stroke-width: 0px;"/>
        <polygon points="131.3 181.07 131.92 181.07 131.56 180.76 131.3 181.07" style="fill: #fff; stroke-width: 0px;"/>
        <path d="m180.86,166.46l-6.27-6.27c-.98,1.02-1.78,2.21-2.36,3.53l8.21,3.36c.11-.22.25-.43.41-.62Z" style="fill: #fff; stroke-width: 0px;"/>
        <path d="m181.82,165.7l-3.43-8.18c-1.28.57-2.44,1.36-3.44,2.32l6.27,6.27c.18-.16.39-.29.6-.4Z" style="fill: #fff; stroke-width: 0px;"/>
        <path d="m187.61,157.28c-1.27-.49-2.64-.77-4.07-.8v8.87c.25.02.48.07.71.14l3.36-8.21Z" style="fill: #fff; stroke-width: 0px;"/>
        <path d="m185.71,166.46c.16.18.29.39.4.6l8.18-3.43c-.57-1.28-1.36-2.44-2.32-3.44l-6.27,6.27Z" style="fill: #fff; stroke-width: 0px;"/>
        <path d="m183.28,154.22c-.52,0-1.04.03-1.54.09-.4.21-.85.34-1.34.34-.13,0-.26-.02-.39-.04-6.32,1.48-11.04,7.15-11.04,13.91,0,7.89,6.42,14.3,14.3,14.3s14.3-6.42,14.3-14.3-6.42-14.3-14.3-14.3Zm0,27.37c-7.21,0-13.07-5.86-13.07-13.07s5.86-13.07,13.07-13.07,13.07,5.86,13.07,13.07-5.86,13.07-13.07,13.07Z" style="fill: #fff; stroke-width: 0px;"/>
        <path d="m209.42,111.04c-12.78-3.77-29.46-6.13-42.56-7.76-3.95-.49-7.8-.9-11.53-1.21s-7.34-.53-10.81-.65c-2.32-.08-4.57-.12-6.76-.12-10.51,0-18,.96-23.31,2.27-2.04.5-3.77,1.06-5.22,1.63-.58.23-1.12.46-1.62.69-.5.23-.95.46-1.37.69-.42.23-.8.46-1.15.68-1.4.9-2.25,1.73-2.75,2.36-1.12,1.38-2.09,3.29-2.89,5.62-.69,2.01-1.25,4.33-1.69,6.89-.4,2.33-.68,4.86-.85,7.53-.12,1.86-.17,3.79-.17,5.77,0,2.16.08,4.38.23,6.62.15,2.25.38,4.53.68,6.82.2,1.53.44,3.05.71,4.58.27,1.52.58,3.04.93,4.55.17.75.35,1.5.55,2.25.38,1.49.8,2.97,1.26,4.43.69,2.18,1.46,4.31,2.32,6.37.27.64.55,1.27.84,1.88.58,1.22,1.2,2.39,1.87,3.5s1.37,2.16,2.11,3.16c1.11,1.5,2.32,2.88,3.6,4.15.86.85,1.76,1.64,2.69,2.4.93.75,1.9,1.46,2.91,2.12,3.53,2.32,7.5,4.11,11.87,5.49,1.25.39,2.53.76,3.85,1.09,1.32.33,2.66.63,4.04.9,1.38.27,2.79.52,4.23.74,1.44.22,2.91.42,4.42.59,3.75.43,7.69.73,11.8.94,3.38.16,6.32.24,9,.24,24.1,0,37.63-6.1,48.24-21.75.9-1.33,1.76-2.67,2.58-4.01.82-1.34,1.6-2.69,2.34-4.05,2.22-4.06,4.07-8.13,5.58-12.11.5-1.33.97-2.64,1.39-3.95.85-2.6,1.55-5.15,2.1-7.61.27-1.23.51-2.44.71-3.62,1.4-8.26,1-15.24-1.03-19.54-.81-1.72-4.3-6.18-19.12-10.55Zm-26.14,74.14c-9.18,0-16.66-7.47-16.66-16.66,0-3.73,1.24-7.16,3.32-9.93-1.3-.04-2.37-.94-2.68-2.14-.35-.13-.66-.34-.92-.6-5.44-2.88-7.75-8.13-8.59-13.27-.03.03-.07.05-.1.08-1.03.83-1.98,1.64-2.83,2.41-.09.08-.18.16-.27.24-.36.33-.71.65-1.03.96-.04.04-.09.09-.14.13-.37.35-.71.68-1.01.99,0,0-.01.01-.02.02l8.42,12.57c.3.42.51.89.61,1.39.1.49,2.43,11.63,2.43,19.69l-.92.06h4c1.13,0,2.05.92,2.05,2.05v2.19h-12.11v-2.19c0-.42.13-.82.35-1.14h0s0,0,0,0c.08-.12.18-.23.29-.33.03-.03.07-.06.11-.09.05-.04.09-.08.14-.12l-1.14.08c0-6.24-1.64-15.36-2.14-18.01l-8.41-11.71-1.09.17-.63,12.6c-.03.61-.22,1.2-.54,1.72-.27.44-5.75,9.34-10.2,14.76h1.34c1.13,0,2.05.92,2.05,2.05v2.19h-7.8l-4.6-3.08,1.24-2.63c.45-.85,1.06-1.28,1.47-1.31.16-.2.36-.46.58-.73l-.43-.37c3.53-4.1,8.12-11.36,9.76-13.93l.36-18.32c-.07-.8,0-1.61.18-2.41,0,0,0,0,0,0,0-.04.02-.07.03-.11.05-.21.12-.42.19-.62.03-.08.06-.16.1-.24.07-.17.14-.33.22-.49.02-.04.04-.09.06-.14h.01c.28-.55.62-1.08,1.05-1.56.36-.41,8.99-10.11,19.6-15.27,1.22-.59,2.52-.82,3.79-.73.47-.17.98-.28,1.51-.28.34,0,.67.05.99.12l.9-.99s-.02-.03-.03-.05c-.74-2.17.57-4.47.57-4.47l1.31-2.42c1.52-2.93,5.07-3.73,8.47-2.26,2.5,1.08,3.82,3.62,4.62,5.12.36.67.89,1.17.89,1.17-.54.84-1.23,1.09-1.69,1.15,0,0,.01.01.02.02-.11,0-.19,0-.25,0-.17,0-.27,0-.27,0,0,0-.03-.02-.06-.05l-2.1,3.3-.08,1.82c-.04.61-.75.41-1.18,0-2.12,2.32-4.75,2.5-7.5.8-.17-.11-.33-.23-.49-.35.08.25.12.51.14.77.16.25.31.51.44.78.24.48.41.98.53,1.48.14.34.22.72.19,1.12,0,0,0,.03,0,.06.03.43.03.85,0,1.27.08,3.54,1.07,13.16,9.19,16.47.41.17.74.43.99.75.12.06.23.13.34.21.07,0,.14-.02.22-.02,1.59,0,2.88,1.29,2.88,2.88,0,.03,0,.06,0,.1,0,0,0,0,0,0,9.18,0,16.66,7.47,16.66,16.66s-7.47,16.66-16.66,16.66Z" style="fill: #fff; stroke-width: 0px;"/>
        <path d="m183.54,171.69v8.87c1.47-.03,2.87-.32,4.16-.84l-3.43-8.18c-.23.08-.48.13-.73.15Z" style="fill: #fff; stroke-width: 0px;"/>
        <path d="m186.45,168.27h8.87c-.03-1.47-.32-2.87-.84-4.16l-8.18,3.43c.08.23.13.48.15.74Z" style="fill: #fff; stroke-width: 0px;"/>
        <path d="m186.32,169.49l8.21,3.36c.49-1.27.77-2.64.8-4.07h-8.87c-.02.25-.07.48-.14.71Z" style="fill: #fff; stroke-width: 0px;"/>
        <path d="m184.74,171.35l3.43,8.18c1.28-.57,2.44-1.36,3.44-2.32l-6.27-6.27c-.18.16-.39.29-.6.4Z" style="fill: #fff; stroke-width: 0px;"/>
        <path d="m185.71,170.58l6.27,6.27c.98-1.02,1.78-2.21,2.36-3.53l-8.21-3.36c-.11.22-.25.43-.41.62Z" style="fill: #fff; stroke-width: 0px;"/>
        <polygon points="389.77 180.6 389.77 180.6 390.83 164.89 387 161.1 384 161.1 380.29 163.16 379.78 174.27 385.12 178.79 384.75 179.16 387.93 181.19 386.46 187.8 391.1 187.8 389.45 183.26 389.77 180.6" style="fill: #fff; stroke-width: 0px;"/>
        <path d="m392,123.84c0-.07,0-.14.01-.22l-.95.42c.33-.08.64-.15.94-.2Z" style="fill: #fff; stroke-width: 0px;"/>
        <path d="m380.61,183.26l-.35.34-.88-.63-.22,4.82h3.26c-.24-1.84.27-3.79.27-3.79l-2.08-.75Z" style="fill: #fff; stroke-width: 0px;"/>
        <polygon points="377.42 172.26 377.78 164.56 372.07 167.74 377.42 172.26" style="fill: #fff; stroke-width: 0px;"/>
        <path d="m394.65,122.47s.08.06.11.1c.05.07.07.15.08.23l24.84-11.02-.16-.23-24.87,10.91Z" style="fill: #fff; stroke-width: 0px;"/>
        <path d="m434.92,184.96c.9-.8,1.76-1.64,2.58-2.54.82-.9,1.6-1.84,2.34-2.84,1.86-2.5,3.46-5.33,4.81-8.54.57-1.37,1.11-2.77,1.6-4.2.74-2.15,1.4-4.35,1.97-6.59,2.48-9.71,3.4-20.08,3.01-29.06-.12-2.76-.37-5.39-.73-7.83-.63-4.27-1.62-7.94-2.93-10.71-.56-1.19-1.18-2.21-1.85-3.03-.19-.23-.43-.5-.73-.78-.2-.19-.42-.39-.68-.6-.25-.21-.54-.42-.85-.64-.32-.22-.66-.44-1.05-.67-.38-.23-.8-.46-1.26-.69-1.6-.81-3.68-1.63-6.37-2.36-1.15-.31-2.41-.61-3.8-.88-.46-.09-.94-.18-1.43-.27-4.89-.86-11.19-1.43-19.28-1.43-2.19,0-4.45.04-6.77.12-3.47.12-7.08.34-10.82.65-3.73.31-7.58.71-11.54,1.21-13.1,1.63-29.77,3.99-42.55,7.76-.93.27-1.81.55-2.65.82-1.26.41-2.43.82-3.5,1.23-.72.27-1.4.54-2.04.81-.64.27-1.25.53-1.82.8-.86.39-1.63.78-2.34,1.16-.71.38-1.34.75-1.92,1.11-.57.36-1.08.71-1.53,1.04-.15.11-.29.22-.43.33-.41.33-.77.64-1.09.93-.63.59-1.06,1.12-1.36,1.56-.1.15-.19.29-.26.41-.07.13-.14.25-.19.35-1.31,2.77-1.94,6.64-1.86,11.24.02,1.02.07,2.08.17,3.18.27,3.28.87,6.85,1.81,10.6.47,1.88,1.02,3.8,1.66,5.75,2.55,7.81,6.48,16.14,11.89,24.11.66.98,1.34,1.92,2.03,2.82,3.44,4.52,7.21,8.13,11.55,10.94,1.73,1.12,3.56,2.11,5.49,2.98,7.72,3.48,17.13,5.01,29.17,5.01,1.35,0,2.76-.02,4.25-.06,1.49-.04,3.06-.1,4.74-.18,2.47-.12,4.88-.28,7.22-.48,1.56-.13,3.09-.28,4.6-.46,1.5-.17,2.98-.37,4.42-.59,2.89-.44,5.65-.98,8.28-1.64,1.32-.33,2.6-.69,3.85-1.09,5.01-1.58,9.48-3.69,13.36-6.51.97-.71,1.91-1.46,2.8-2.25Zm-14.16-73.32l-.27.12h0c.1.16.05.35-.12.43-.17.09-.38.04-.48-.1l-.04-.05-25.07,11.12c-.02.06-.04.11-.06.17-.04.11-.09.22-.13.33.18.01.28.03.28.03,0,0,1.67-.02,3.68-.03v-.49s.71-.35,1.04-.37c.11,0,.3.36.5.84,2.63-.01,5.31-.01,5.54.04.47.1,1.99,1.22,1.99,1.22-.28-.23,1.42-.86,1.61-.85.56.02,1.23.31,1.16.88-.1.72-.92,1.9-1.82,2-1.09.12-1.8-.75-1.8-.75,0,0-.57.79-1.52.42-.95-.37-.71-1.45-.71-1.45h-1.71c-.04.4-.62,1.22-.62,1.22,0,0,.55.04.55.35,0,.18-.91.99-1.64,1.62.5,2.63.92,7.72,1.08,11.19.21,4.62-3.03,4.56-3.03,4.56v3.18c0,2.28-1.17,2.32-1.17,2.32l.35,1.54s2.83,8.55,2.34,14.1c-.49,5.55-5.18,15.91-5.18,15.91l-.26-.02-.77,3.1v.29c.37.64,2.23,4.25.31,6.24l.12,2.64h-1.96l-.22-1.58c-.06.01-.11.04-.17.05l-1.01-2.79h-5.38l-.43,1.92c-1.69,0-2.56-.83-3-1.92h-3.76l-.6,4.31h-1.96l.57-12.11-12.63-9.04c-1.57-1.12-2.42-2.84-2.28-4.61.11-1.38.82-2.68,1.98-3.62l12.65-10.28,1.02-2.85s-1.38-.48-1.45-2.4c-.07-1.92.83-12.55.83-12.55l-10.77,2.98c-1.35.37-2.83-.03-3.69-1.02-1.14-1.31-.83-3.17.69-4.14,4.18-2.65,11.66-7.38,12.25-7.73.68-.39,4.7-1.35,8.03-1.78v-.08c-1.02-.72-1.91-1.99-2.72-4.03,0,0-1.71.17-2.07-1.62-.27-1.36.36-1.77.67-1.89t0,0c-.3-.76-.7-1.58-.97-3.31-.27-1.73.92-3.33,4.92-5.05,4.01-1.71,5.84.89,5.84.89,3.63-.27,2.15,6.03,2.15,6.03,0,0,1.2-.13,1.4,1.67.2,1.8-1.5,2.04-1.5,2.04-.16,2.16-.63,3.59-1.38,4.52l.06.39,29.46-12.93c.16-.07.36-.02.46.11l.36.51.29-.13c.09-.04.19-.01.23.07.05.07.01.17-.08.2Z" style="fill: #fff; stroke-width: 0px;"/>
        <path d="m501.53,54.21c5.63,0,10.2-4.58,10.2-10.2s-4.58-10.2-10.2-10.2-10.2,4.58-10.2,10.2,4.58,10.2,10.2,10.2Zm0-16.4c3.42,0,6.2,2.78,6.2,6.2s-2.78,6.2-6.2,6.2-6.2-2.78-6.2-6.2,2.78-6.2,6.2-6.2Z" style="fill: #fff; stroke-width: 0px;"/>
        <path d="m59.57,33.8c-5.63,0-10.2,4.58-10.2,10.2s4.58,10.2,10.2,10.2,10.2-4.58,10.2-10.2-4.58-10.2-10.2-10.2Zm0,16.4c-3.42,0-6.2-2.78-6.2-6.2s2.78-6.2,6.2-6.2,6.2,2.78,6.2,6.2-2.78,6.2-6.2,6.2Z" style="fill: #fff; stroke-width: 0px;"/>
      </g>
      <g>
        <circle cx="501.53" cy="229.85" r="6.2" transform="translate(97.25 605.24) rotate(-67.5)" style="fill: #fff; stroke-width: 0px;"/>
        <path d="m515.27,210.63h-40.52c-3.61,0-6.54,2.93-6.54,6.54v25.34c0,3.61,2.93,6.54,6.54,6.54h40.52c3.61,0,6.54-2.93,6.54-6.54v-25.34c0-3.61-2.93-6.54-6.54-6.54Zm1.02,31.56c0,.72-.58,1.3-1.3,1.3h-26.92c-.72,0-1.3-.58-1.3-1.3v-24.69c0-.72.58-1.3,1.3-1.3h26.92c.72,0,1.3.58,1.3,1.3v24.69Z" style="fill: #fff; stroke-width: 0px;"/>
        <circle cx="59.57" cy="229.85" r="6.2" style="fill: #fff; stroke-width: 0px;"/>
        <path d="m73.31,210.63h-40.52c-3.61,0-6.54,2.93-6.54,6.54v25.34c0,3.61,2.93,6.54,6.54,6.54h40.52c3.61,0,6.54-2.93,6.54-6.54v-25.34c0-3.61-2.93-6.54-6.54-6.54Zm1.02,31.56c0,.72-.58,1.3-1.3,1.3h-26.92c-.72,0-1.3-.58-1.3-1.3v-24.69c0-.72.58-1.3,1.3-1.3h26.92c.72,0,1.3.58,1.3,1.3v24.69Z" style="fill: #fff; stroke-width: 0px;"/>
        <path d="m475.81,148.82h6.18c2.42,0,4.45-1.79,4.75-4.18l6.91-53.73c.3-2.31-1.11-4.51-3.34-5.19-56.29-17.45-141.41-.77-169.97,8.75-21.68,7.23-43.07,8.78-46.07,8.97-.07,0-.14-.01-.23-.01s-.17.01-.24.01c-2.99-.19-24.4-1.74-46.07-8.97-28.57-9.52-113.67-26.2-169.97-8.75-2.22.69-3.63,2.89-3.33,5.19l6.9,53.73c.31,2.39,2.34,4.18,4.75,4.18h6.19c2.24,0,4.18,1.55,4.68,3.75,3.8,17.01,9.22,37.06,17.42,45.28,12.73,12.73,43.45,26.22,87.66,20.22,44.21-5.99,59.95-38.2,65.94-51.69,5.76-12.96,6.68-37.69,24.73-38.25v.04c.38-.02.75-.02,1.11-.04h.47c.36.01.73.01,1.12.04v-.04c18.04.55,18.96,25.29,24.73,38.25,5.99,13.49,21.73,45.7,65.94,51.69,44.2,6,74.92-7.49,87.65-20.22,8.21-8.22,13.62-28.27,17.43-45.28.48-2.2,2.43-3.75,4.68-3.75ZM75.1,111.29c-6.16,0-11.16-5-11.16-11.16s5-11.16,11.16-11.16,11.16,5,11.16,11.16-5,11.16-11.16,11.16Zm147.74,70.58c-13.96,20.6-32.69,25.97-56.2,25.97-3.07,0-6.22-.1-9.46-.25-25.92-1.3-51.45-6.18-62.64-32.84-10.08-24.02-9.91-58.63.32-71.21,12.17-14.98,51.09-12.58,73.2-9.81,31.99,3.99,62.51,9.64,69.18,23.75,6.87,14.5.67,42.18-14.4,64.4Zm230.69-7.12c-11.19,26.66-36.72,31.54-62.65,32.84-3.23.16-6.38.25-9.46.25-23.51,0-42.23-5.37-56.2-25.97-15.08-22.22-21.27-49.9-14.4-64.4,6.69-14.1,37.2-19.75,69.18-23.75,22.12-2.77,61.04-5.17,73.21,9.81,10.22,12.59,10.39,47.19.32,71.21Zm8.27-74.62c0-6.16,5-11.16,11.16-11.16s11.16,5,11.16,11.16-5,11.16-11.16,11.16-11.16-5-11.16-11.16Z" style="fill: #fff; stroke-width: 0px;"/>
        <path d="m480.51,100.14c0-.87-.15-1.71-.42-2.49-.62.56-1.44.89-2.35.89-1.95,0-3.54-1.59-3.54-3.54,0-.81.27-1.56.73-2.15-.63-.17-1.29-.26-1.97-.26-4.17,0-7.55,3.38-7.55,7.55s3.38,7.55,7.55,7.55,7.55-3.38,7.55-7.55Z" style="fill: #fff; stroke-width: 0px;"/>
        <path d="m79.88,98.54c-1.95,0-3.54-1.59-3.54-3.54,0-.81.27-1.56.73-2.15-.63-.17-1.29-.26-1.97-.26-4.17,0-7.55,3.38-7.55,7.55s3.38,7.55,7.55,7.55,7.55-3.38,7.55-7.55c0-.87-.15-1.71-.42-2.49-.62.56-1.44.89-2.35.89Z" style="fill: #fff; stroke-width: 0px;"/>
        <path d="m517.72,0H30.34C13.58,0,0,13.58,0,30.34v213.18c0,16.75,13.58,30.34,30.34,30.34h487.39c16.75,0,30.34-13.58,30.34-30.34V30.34c0-16.75-13.58-30.34-30.34-30.34Zm17.06,243.52c0,9.41-7.65,17.06-17.06,17.06H30.34c-9.41,0-17.06-7.65-17.06-17.06V30.34c0-9.41,7.65-17.06,17.06-17.06h487.39c9.41,0,17.06,7.65,17.06,17.06v213.18Z" style="fill: #fff; stroke-width: 0px;"/>
        <circle cx="501.53" cy="44.01" r="6.2" transform="translate(268.95 490.52) rotate(-67.5)" style="fill: #fff; stroke-width: 0px;"/>
        <path d="m515.27,24.79h-40.52c-3.61,0-6.54,2.93-6.54,6.54v25.34c0,3.61,2.93,6.54,6.54,6.54h40.52c3.61,0,6.54-2.93,6.54-6.54v-25.34c0-3.61-2.93-6.54-6.54-6.54Zm1.02,31.56c0,.72-.58,1.3-1.3,1.3h-26.92c-.72,0-1.3-.58-1.3-1.3v-24.69c0-.72.58-1.3,1.3-1.3h26.92c.72,0,1.3.58,1.3,1.3v24.69Z" style="fill: #fff; stroke-width: 0px;"/>
        <circle cx="59.57" cy="44.01" r="6.2" style="fill: #fff; stroke-width: 0px;"/>
        <path d="m32.79,63.22h40.52c3.61,0,6.54-2.93,6.54-6.54v-25.34c0-3.61-2.93-6.54-6.54-6.54h-40.52c-3.61,0-6.54,2.93-6.54,6.54v25.34c0,3.61,2.93,6.54,6.54,6.54Zm12.02-31.56c0-.72.58-1.3,1.3-1.3h26.92c.72,0,1.3.58,1.3,1.3v24.69c0,.72-.58,1.3-1.3,1.3h-26.92c-.72,0-1.3-.58-1.3-1.3v-24.69Z" style="fill: #fff; stroke-width: 0px;"/>
      </g>
    </g>
  </g>
</svg>